<mxfile host="app.diagrams.net" modified="2022-05-12T13:55:49.329Z" agent="5.0 (Windows NT 10.0; Win64; x64) AppleWebKit/537.36 (KHTML, like Gecko) Chrome/101.0.4951.54 Safari/537.36" etag="X0AL6u6gbzUv4lsrGrLU" version="18.0.3" type="github">
  <diagram id="jBZosiRlT1AQV_-I5hG2" name="Page-1">
    <mxGraphModel dx="1038" dy="539" grid="1" gridSize="10" guides="1" tooltips="1" connect="1" arrows="1" fold="1" page="1" pageScale="1" pageWidth="850" pageHeight="1100" math="0" shadow="0">
      <root>
        <mxCell id="0" />
        <mxCell id="1" parent="0" />
        <mxCell id="c9-4eAoVylM3JH55FmD6-1" value="app-root" style="rounded=0;whiteSpace=wrap;html=1;" parent="1" vertex="1">
          <mxGeometry x="40" y="190" width="120" height="60" as="geometry" />
        </mxCell>
        <mxCell id="c9-4eAoVylM3JH55FmD6-2" value="app-myexpandedtable" style="rounded=0;whiteSpace=wrap;html=1;" parent="1" vertex="1">
          <mxGeometry x="230" y="190" width="130" height="60" as="geometry" />
        </mxCell>
        <mxCell id="c9-4eAoVylM3JH55FmD6-4" value="app-mymodal" style="rounded=0;whiteSpace=wrap;html=1;" parent="1" vertex="1">
          <mxGeometry x="425" y="100" width="130" height="60" as="geometry" />
        </mxCell>
        <mxCell id="c9-4eAoVylM3JH55FmD6-6" value="app-mymapmodal" style="rounded=0;whiteSpace=wrap;html=1;" parent="1" vertex="1">
          <mxGeometry x="425" y="260" width="130" height="60" as="geometry" />
        </mxCell>
        <mxCell id="c9-4eAoVylM3JH55FmD6-8" value="app-mymap" style="rounded=0;whiteSpace=wrap;html=1;" parent="1" vertex="1">
          <mxGeometry x="425" y="386" width="130" height="60" as="geometry" />
        </mxCell>
        <mxCell id="c9-4eAoVylM3JH55FmD6-11" value="form" style="shape=table;startSize=30;container=1;collapsible=0;childLayout=tableLayout;fontStyle=1;align=center;" parent="1" vertex="1">
          <mxGeometry x="620" y="86" width="120" height="95" as="geometry" />
        </mxCell>
        <mxCell id="c9-4eAoVylM3JH55FmD6-12" value="" style="shape=tableRow;horizontal=0;startSize=0;swimlaneHead=0;swimlaneBody=0;top=0;left=0;bottom=0;right=0;collapsible=0;dropTarget=0;fillColor=none;points=[[0,0.5],[1,0.5]];portConstraint=eastwest;" parent="c9-4eAoVylM3JH55FmD6-11" vertex="1">
          <mxGeometry y="30" width="120" height="22" as="geometry" />
        </mxCell>
        <mxCell id="c9-4eAoVylM3JH55FmD6-13" value="" style="shape=partialRectangle;html=1;whiteSpace=wrap;connectable=0;fillColor=none;top=0;left=0;bottom=0;right=0;overflow=hidden;" parent="c9-4eAoVylM3JH55FmD6-12" vertex="1">
          <mxGeometry width="40" height="22" as="geometry">
            <mxRectangle width="40" height="22" as="alternateBounds" />
          </mxGeometry>
        </mxCell>
        <mxCell id="c9-4eAoVylM3JH55FmD6-14" value="" style="shape=partialRectangle;html=1;whiteSpace=wrap;connectable=0;fillColor=none;top=0;left=0;bottom=0;right=0;overflow=hidden;" parent="c9-4eAoVylM3JH55FmD6-12" vertex="1">
          <mxGeometry x="40" width="40" height="22" as="geometry">
            <mxRectangle width="40" height="22" as="alternateBounds" />
          </mxGeometry>
        </mxCell>
        <mxCell id="c9-4eAoVylM3JH55FmD6-15" value="" style="shape=partialRectangle;html=1;whiteSpace=wrap;connectable=0;fillColor=none;top=0;left=0;bottom=0;right=0;overflow=hidden;" parent="c9-4eAoVylM3JH55FmD6-12" vertex="1">
          <mxGeometry x="80" width="40" height="22" as="geometry">
            <mxRectangle width="40" height="22" as="alternateBounds" />
          </mxGeometry>
        </mxCell>
        <mxCell id="c9-4eAoVylM3JH55FmD6-16" value="" style="shape=tableRow;horizontal=0;startSize=0;swimlaneHead=0;swimlaneBody=0;top=0;left=0;bottom=0;right=0;collapsible=0;dropTarget=0;fillColor=none;points=[[0,0.5],[1,0.5]];portConstraint=eastwest;" parent="c9-4eAoVylM3JH55FmD6-11" vertex="1">
          <mxGeometry y="52" width="120" height="21" as="geometry" />
        </mxCell>
        <mxCell id="c9-4eAoVylM3JH55FmD6-17" value="" style="shape=partialRectangle;html=1;whiteSpace=wrap;connectable=0;fillColor=none;top=0;left=0;bottom=0;right=0;overflow=hidden;" parent="c9-4eAoVylM3JH55FmD6-16" vertex="1">
          <mxGeometry width="40" height="21" as="geometry">
            <mxRectangle width="40" height="21" as="alternateBounds" />
          </mxGeometry>
        </mxCell>
        <mxCell id="c9-4eAoVylM3JH55FmD6-18" value="" style="shape=partialRectangle;html=1;whiteSpace=wrap;connectable=0;fillColor=none;top=0;left=0;bottom=0;right=0;overflow=hidden;" parent="c9-4eAoVylM3JH55FmD6-16" vertex="1">
          <mxGeometry x="40" width="40" height="21" as="geometry">
            <mxRectangle width="40" height="21" as="alternateBounds" />
          </mxGeometry>
        </mxCell>
        <mxCell id="c9-4eAoVylM3JH55FmD6-19" value="" style="shape=partialRectangle;html=1;whiteSpace=wrap;connectable=0;fillColor=none;top=0;left=0;bottom=0;right=0;overflow=hidden;" parent="c9-4eAoVylM3JH55FmD6-16" vertex="1">
          <mxGeometry x="80" width="40" height="21" as="geometry">
            <mxRectangle width="40" height="21" as="alternateBounds" />
          </mxGeometry>
        </mxCell>
        <mxCell id="c9-4eAoVylM3JH55FmD6-20" value="" style="shape=tableRow;horizontal=0;startSize=0;swimlaneHead=0;swimlaneBody=0;top=0;left=0;bottom=0;right=0;collapsible=0;dropTarget=0;fillColor=none;points=[[0,0.5],[1,0.5]];portConstraint=eastwest;" parent="c9-4eAoVylM3JH55FmD6-11" vertex="1">
          <mxGeometry y="73" width="120" height="22" as="geometry" />
        </mxCell>
        <mxCell id="c9-4eAoVylM3JH55FmD6-21" value="" style="shape=partialRectangle;html=1;whiteSpace=wrap;connectable=0;fillColor=none;top=0;left=0;bottom=0;right=0;overflow=hidden;" parent="c9-4eAoVylM3JH55FmD6-20" vertex="1">
          <mxGeometry width="40" height="22" as="geometry">
            <mxRectangle width="40" height="22" as="alternateBounds" />
          </mxGeometry>
        </mxCell>
        <mxCell id="c9-4eAoVylM3JH55FmD6-22" value="" style="shape=partialRectangle;html=1;whiteSpace=wrap;connectable=0;fillColor=none;top=0;left=0;bottom=0;right=0;overflow=hidden;" parent="c9-4eAoVylM3JH55FmD6-20" vertex="1">
          <mxGeometry x="40" width="40" height="22" as="geometry">
            <mxRectangle width="40" height="22" as="alternateBounds" />
          </mxGeometry>
        </mxCell>
        <mxCell id="c9-4eAoVylM3JH55FmD6-23" value="" style="shape=partialRectangle;html=1;whiteSpace=wrap;connectable=0;fillColor=none;top=0;left=0;bottom=0;right=0;overflow=hidden;" parent="c9-4eAoVylM3JH55FmD6-20" vertex="1">
          <mxGeometry x="80" width="40" height="22" as="geometry">
            <mxRectangle width="40" height="22" as="alternateBounds" />
          </mxGeometry>
        </mxCell>
        <mxCell id="c9-4eAoVylM3JH55FmD6-24" value="" style="image;html=1;image=img/lib/clip_art/general/Earth_globe_128x128.png" parent="1" vertex="1">
          <mxGeometry x="625" y="314" width="110" height="100" as="geometry" />
        </mxCell>
        <mxCell id="SHu6IIBfmTqr3T7JVJ0l-1" value="" style="endArrow=diamondThin;endFill=0;endSize=24;html=1;rounded=0;entryX=1;entryY=0.5;entryDx=0;entryDy=0;exitX=0;exitY=0.5;exitDx=0;exitDy=0;" edge="1" parent="1" source="c9-4eAoVylM3JH55FmD6-2" target="c9-4eAoVylM3JH55FmD6-1">
          <mxGeometry width="160" relative="1" as="geometry">
            <mxPoint x="150" y="340" as="sourcePoint" />
            <mxPoint x="310" y="340" as="targetPoint" />
          </mxGeometry>
        </mxCell>
        <mxCell id="SHu6IIBfmTqr3T7JVJ0l-3" value="" style="endArrow=diamondThin;endFill=0;endSize=24;html=1;rounded=0;entryX=1;entryY=0.25;entryDx=0;entryDy=0;exitX=0;exitY=0.5;exitDx=0;exitDy=0;" edge="1" parent="1" source="c9-4eAoVylM3JH55FmD6-4" target="c9-4eAoVylM3JH55FmD6-2">
          <mxGeometry width="160" relative="1" as="geometry">
            <mxPoint x="240" y="230" as="sourcePoint" />
            <mxPoint x="170" y="230" as="targetPoint" />
          </mxGeometry>
        </mxCell>
        <mxCell id="SHu6IIBfmTqr3T7JVJ0l-4" value="" style="endArrow=diamondThin;endFill=0;endSize=24;html=1;rounded=0;entryX=1;entryY=0.75;entryDx=0;entryDy=0;exitX=0;exitY=0.5;exitDx=0;exitDy=0;" edge="1" parent="1" source="c9-4eAoVylM3JH55FmD6-6" target="c9-4eAoVylM3JH55FmD6-2">
          <mxGeometry width="160" relative="1" as="geometry">
            <mxPoint x="435" y="140" as="sourcePoint" />
            <mxPoint x="370" y="215" as="targetPoint" />
          </mxGeometry>
        </mxCell>
        <mxCell id="SHu6IIBfmTqr3T7JVJ0l-5" value="" style="endArrow=diamondThin;endFill=0;endSize=24;html=1;rounded=0;entryX=0.5;entryY=1;entryDx=0;entryDy=0;exitX=0.5;exitY=0;exitDx=0;exitDy=0;" edge="1" parent="1" source="c9-4eAoVylM3JH55FmD6-8" target="c9-4eAoVylM3JH55FmD6-6">
          <mxGeometry width="160" relative="1" as="geometry">
            <mxPoint x="435" y="300" as="sourcePoint" />
            <mxPoint x="370" y="245" as="targetPoint" />
          </mxGeometry>
        </mxCell>
      </root>
    </mxGraphModel>
  </diagram>
</mxfile>
